<svg xmlns="http://www.w3.org/2000/svg" width="30" height="15.757" viewBox="0 0 30 15.757">
  <g id="arrow_down" data-name="arrow down" transform="translate(0 15.757) rotate(-90)">
    <path id="Pfad_36" data-name="Pfad 36" d="M.269,22.55l6.924,7.159A.974.974,0,0,0,7.859,30a.861.861,0,0,0,.672-.281l6.942-7.172a.993.993,0,0,0,.282-.693.976.976,0,0,0-.264-.705h0a.937.937,0,0,0-1.35-.012L8.825,26.619V1.022A.978.978,0,0,0,7.889,0a.88.88,0,0,0-.678.275.994.994,0,0,0-.294.693V26.613L1.6,21.127a.922.922,0,0,0-1.338.044A1.022,1.022,0,0,0,.269,22.55Z" transform="translate(0.001 0.003)" fill="#fff"/>
  </g>
</svg>
