<svg xmlns="http://www.w3.org/2000/svg" width="26.464" height="26.464" viewBox="0 0 26.464 26.464">
  <path id="Icon" d="M13.232,26.464A13.232,13.232,0,0,1,3.876,3.876,13.232,13.232,0,1,1,22.589,22.589,13.146,13.146,0,0,1,13.232,26.464ZM9.042,7.718a1.314,1.314,0,0,0-.935.389,1.328,1.328,0,0,0,0,1.875L11.226,13.1,8.11,16.213a1.323,1.323,0,1,0,1.872,1.871L13.1,14.968l3.116,3.115a1.323,1.323,0,1,0,1.871-1.871L14.968,13.1l3.115-3.115A1.323,1.323,0,1,0,16.213,8.11L13.1,11.226,9.982,8.11A1.321,1.321,0,0,0,9.042,7.718Z" fill="#3d3f41"/>
</svg>
