<svg id="done" xmlns="http://www.w3.org/2000/svg" width="55.421" height="40" viewBox="0 0 55.421 40">
  <path id="Pfad_88" data-name="Pfad 88" d="M54.568.842A3.813,3.813,0,0,0,52.437,0a3.193,3.193,0,0,0-1.918.842l-31.547,32L4.9,18.737a3.813,3.813,0,0,0-2.132-.842,2.438,2.438,0,0,0-1.705.632A2.911,2.911,0,0,0,0,20.632a2.686,2.686,0,0,0,.853,2.105l16.2,16.421A3.813,3.813,0,0,0,19.184,40a2.619,2.619,0,0,0,1.918-.842L54.568,5.053a3.715,3.715,0,0,0,.853-2.105A2.686,2.686,0,0,0,54.568.842Z" fill="#3d3f41"/>
</svg>
