<svg xmlns="http://www.w3.org/2000/svg" width="74" height="68.12" viewBox="0 0 74 68.12">
  <g id="Gruppe_448" data-name="Gruppe 448" transform="translate(-1052 -118)">
    <g id="Gruppe_447" data-name="Gruppe 447" transform="translate(-106)">
      <g id="anhang" transform="translate(1158 118)">
        <path id="Pfad_40" data-name="Pfad 40" d="M59.888,8.6H37.213a2.919,2.919,0,0,1-2.935-1.646l-2.268-3.4A7.819,7.819,0,0,0,25.161,0h-11.2A13.816,13.816,0,0,0,0,13.963V54.157A13.816,13.816,0,0,0,13.963,68.12H59.888A13.816,13.816,0,0,0,73.851,54.157V22.582A13.8,13.8,0,0,0,59.888,8.6ZM68.9,54.157A8.8,8.8,0,0,1,59.9,63.15H13.963A8.8,8.8,0,0,1,4.97,54.157V34.06a8.8,8.8,0,0,1,8.993-8.993H59.888a8.8,8.8,0,0,1,8.993,8.993v20.1Zm0-30.8-.621-.466a14.417,14.417,0,0,0-8.387-2.8H13.963a14.453,14.453,0,0,0-8.387,2.8l-.621.466v-9.4A8.8,8.8,0,0,1,13.947,4.97h11.2A2.919,2.919,0,0,1,28.08,6.616l2.268,3.4A7.819,7.819,0,0,0,37.2,13.574H59.873a8.8,8.8,0,0,1,8.993,8.993v.792Z" transform="translate(0 0)" fill="#3d3f41"/>
      </g>
    </g>
    <g id="add" transform="translate(1089 142.243) rotate(45)">
      <path id="Pfad_35" data-name="Pfad 35" d="M26.91,12.918H15.082V1.082a1.082,1.082,0,1,0-2.165,0V12.918H1.082a1.082,1.082,0,1,0,0,2.165H12.918V26.918a1.082,1.082,0,1,0,2.165,0V15.082H26.918a1.082,1.082,0,1,0-.007-2.165Z" fill="#3d3f41"/>
    </g>
  </g>
</svg>