<svg id="Component_26_13" data-name="Component 26 – 13" xmlns="http://www.w3.org/2000/svg" width="31" height="24" viewBox="0 0 31 24">
  <rect id="Rectangle_184" data-name="Rectangle 184" width="31" height="24" rx="4" fill="#3d3f41"/>
  <g id="_Glyphs_Nav_Toolbar_List" data-name="_Glyphs / Nav &amp; Toolbar / List" transform="translate(4.5 5)">
    <path id="Icon" d="M0,12.25A1.25,1.25,0,1,1,1.25,13.5,1.25,1.25,0,0,1,0,12.25ZM5.25,13a.75.75,0,1,1,0-1.5h15a.75.75,0,1,1,0,1.5ZM0,6.75A1.25,1.25,0,1,1,1.25,8,1.25,1.25,0,0,1,0,6.75Zm5.25.75a.75.75,0,0,1,0-1.5h15a.75.75,0,1,1,0,1.5ZM0,1.25A1.25,1.25,0,1,1,1.25,2.5,1.25,1.25,0,0,1,0,1.25ZM5.25,2a.75.75,0,1,1,0-1.5h15a.75.75,0,1,1,0,1.5Z" transform="translate(0.5)" fill="#fff"/>
  </g>
</svg>
