<svg id="edit" xmlns="http://www.w3.org/2000/svg" width="19" height="19" viewBox="0 0 19 19">
  <path id="Pfad_32" data-name="Pfad 32" d="M19,8.693a.649.649,0,1,0-1.3,0v6.436A2.519,2.519,0,0,1,15.125,17.7H3.867a2.519,2.519,0,0,1-2.573-2.573V3.867A2.519,2.519,0,0,1,3.867,1.293H10.3a.608.608,0,0,0,.649-.649A.607.607,0,0,0,10.3,0H3.867A3.824,3.824,0,0,0,0,3.867V15.133A3.824,3.824,0,0,0,3.867,19H15.133A3.824,3.824,0,0,0,19,15.133V8.693Z" transform="translate(0 0)" fill="#3d3f41"/>
  <path id="Pfad_33" data-name="Pfad 33" d="M25.675.284c-.051,0-.1,0-.147,0A2.346,2.346,0,0,0,24,.853L15.474,9.209a.569.569,0,0,0-.194.451v2.413a.608.608,0,0,0,.649.649h2.413a.583.583,0,0,0,.451-.194l8.449-8.533a2.384,2.384,0,0,0-.008-2.927A2.209,2.209,0,0,0,25.675.284Zm.6,2.784-8.192,8.361H16.573V9.917l8.34-8.1a1.074,1.074,0,0,1,.712-.215.844.844,0,0,1,.653.316A1.179,1.179,0,0,1,26.277,3.068Z" transform="translate(-8.844 -0.162)" fill="#3d3f41"/>
</svg>
