<svg xmlns="http://www.w3.org/2000/svg" width="74" height="68.12" viewBox="0 0 74 68.12">
  <g id="Gruppe_446" data-name="Gruppe 446" transform="translate(-1158 -118)">
    <g id="anhang" transform="translate(1158 118)">
      <path id="Pfad_40" data-name="Pfad 40" d="M59.888,8.6H37.213a2.919,2.919,0,0,1-2.935-1.646l-2.268-3.4A7.819,7.819,0,0,0,25.161,0h-11.2A13.816,13.816,0,0,0,0,13.963V54.157A13.816,13.816,0,0,0,13.963,68.12H59.888A13.816,13.816,0,0,0,73.851,54.157V22.582A13.8,13.8,0,0,0,59.888,8.6ZM68.9,54.157A8.8,8.8,0,0,1,59.9,63.15H13.963A8.8,8.8,0,0,1,4.97,54.157V34.06a8.8,8.8,0,0,1,8.993-8.993H59.888a8.8,8.8,0,0,1,8.993,8.993v20.1Zm0-30.8-.621-.466a14.417,14.417,0,0,0-8.387-2.8H13.963a14.453,14.453,0,0,0-8.387,2.8l-.621.466v-9.4A8.8,8.8,0,0,1,13.947,4.97h11.2A2.919,2.919,0,0,1,28.08,6.616l2.268,3.4A7.819,7.819,0,0,0,37.2,13.574H59.873a8.8,8.8,0,0,1,8.993,8.993v.792Z" transform="translate(0 0)" fill="#3d3f41"/>
    </g>
    <g id="ui_1_" data-name="ui (1)" transform="translate(1149.554 149)">
      <path id="Pfad_188" data-name="Pfad 188" d="M36.131,13.479a10.1,10.1,0,0,1,8.424-9.926v1.5l3.37-2.527L44.555,0V1.821a11.769,11.769,0,0,0-4.433,21.721l1.465-1.1A10.112,10.112,0,0,1,36.131,13.479Z" fill="#3d3f41"/>
      <path id="Pfad_189" data-name="Pfad 189" d="M254.6,79.88a11.786,11.786,0,0,0-5.676-10.064l-1.465,1.1a10.082,10.082,0,0,1-2.968,18.9V88.3l-3.37,2.527,3.37,2.527V91.536A11.8,11.8,0,0,0,254.6,79.88Z" transform="translate(-196.565 -66.401)" fill="#3d3f41"/>
    </g>
  </g>
</svg>