<svg id="Foto" xmlns="http://www.w3.org/2000/svg" width="41.166" height="35" viewBox="0 0 41.166 35">
  <path id="Path_82" data-name="Path 82" d="M23.133,17.05a6.132,6.132,0,1,0,6.083,6.132A6.117,6.117,0,0,0,23.133,17.05Zm0,9.743a3.619,3.619,0,1,1,3.59-3.619A3.605,3.605,0,0,1,23.133,26.793Z" transform="translate(-2.545 -2.427)" fill="#fff"/>
  <path id="Path_83" data-name="Path 83" d="M38.566,15.15H35.342A1.158,1.158,0,0,0,34.1,16.4a1.158,1.158,0,0,0,1.242,1.252h3.224A1.158,1.158,0,0,0,39.808,16.4,1.158,1.158,0,0,0,38.566,15.15Z" transform="translate(-5.09 -2.157)" fill="#fff"/>
  <path id="Path_84" data-name="Path 84" d="M41.166,14.254A7.639,7.639,0,0,0,33.476,6.5H31L28.967,2.564A4.343,4.343,0,0,0,24.935,0H16.07a4.327,4.327,0,0,0-4.015,2.53L10.175,6.5H7.691A7.639,7.639,0,0,0,0,14.254V27.247A7.639,7.639,0,0,0,7.691,35H33.476a7.639,7.639,0,0,0,7.691-7.753ZM14.318,3.491a2.07,2.07,0,0,1,1.752-.978h8.865a1.912,1.912,0,0,1,1.778,1.175l1.591,2.8H12.922ZM38.674,27.247a5.1,5.1,0,0,1-5.2,5.24H7.691a5.108,5.108,0,0,1-5.2-5.24V14.254a5.108,5.108,0,0,1,5.2-5.24H33.476a5.108,5.108,0,0,1,5.2,5.24Z" fill="#fff"/>
</svg>
