<svg id="Komponente_70_3" data-name="Komponente 70 – 3" xmlns="http://www.w3.org/2000/svg" width="61.069" height="61.307" viewBox="0 0 61.069 61.307">
  <path id="Pfad_128" data-name="Pfad 128" d="M22.918,37.944A2.1,2.1,0,0,0,20.9,40.089a2.026,2.026,0,0,0,.631,1.388,1.9,1.9,0,0,0,1.388.5h7.317a2.621,2.621,0,0,0,1.514-.631,2.089,2.089,0,0,0,.631-1.514,2.621,2.621,0,0,0-.631-1.514,2.089,2.089,0,0,0-1.514-.631H28.721V21.418A2.075,2.075,0,0,0,26.7,19.4H23.045a2.082,2.082,0,1,0,.126,4.163h1.514V38.07Z" transform="translate(3.953 3.297)" fill="#3d3f41"/>
  <path id="Pfad_129" data-name="Pfad 129" d="M30.653,0a30.653,30.653,0,0,0,0,61.307h0a1.93,1.93,0,0,0,1.322-.6,1.991,1.991,0,0,0,.6-1.443,2.5,2.5,0,0,0-.6-1.443,1.991,1.991,0,0,0-1.443-.6,26.535,26.535,0,1,1,5.77-.6,2.285,2.285,0,0,0-1.322.841,1.823,1.823,0,0,0-.361,1.563,1.91,1.91,0,0,0,.962,1.2,2.069,2.069,0,0,0,1.443.24A30.74,30.74,0,0,0,61.066,30.533,30.245,30.245,0,0,0,30.653,0Z" fill="#3d3f41"/>
  <path id="Pfad_130" data-name="Pfad 130" d="M28.851,16.375a2.775,2.775,0,1,0-2.775,2.775A2.72,2.72,0,0,0,28.851,16.375Z" transform="translate(4.578 2.672)" fill="#3d3f41"/>
</svg>
