<svg xmlns="http://www.w3.org/2000/svg" width="26.41" height="26.41" viewBox="0 0 26.41 26.41">
  <g id="Gruppe_454" data-name="Gruppe 454" transform="translate(-780 -552)">
    <g id="Komponente_64_1" data-name="Komponente 64 – 1" transform="translate(780 552)">
      <path id="Pfad_120" data-name="Pfad 120" d="M27.484,0H9.406A2.326,2.326,0,0,0,7.1,2.306v2.41H24.812a3.4,3.4,0,0,1,3.406,3.406V18.34a3.4,3.4,0,0,1-3.406,3.406H7.1V24.1A2.326,2.326,0,0,0,9.406,26.41H27.484A2.326,2.326,0,0,0,29.79,24.1V2.306A2.326,2.326,0,0,0,27.484,0Z" transform="translate(-3.38)" fill="#3d3f41"/>
      <path id="Pfad_121" data-name="Pfad 121" d="M21.624,20.8H21.1v4.664h.524a1.3,1.3,0,0,0,1.31-1.31V22.11A1.3,1.3,0,0,0,21.624,20.8Z" transform="translate(-10.043 -9.901)" fill="#3d3f41"/>
      <path id="Pfad_122" data-name="Pfad 122" d="M9.634,20.8H8.9v2.044h.786A1.023,1.023,0,1,0,9.634,20.8Z" transform="translate(-4.236 -9.901)" fill="#3d3f41"/>
      <path id="Pfad_123" data-name="Pfad 123" d="M23.318,24V13.834A1.823,1.823,0,0,0,21.484,12H1.834A1.823,1.823,0,0,0,0,13.834V24.052a1.823,1.823,0,0,0,1.834,1.834h19.6A1.879,1.879,0,0,0,23.318,24ZM5.4,20.227H4.664v1.782a.806.806,0,0,1-.786.786.806.806,0,0,1-.786-.786V15.825a.806.806,0,0,1,.786-.786H5.45a2.572,2.572,0,0,1,2.568,2.568A2.662,2.662,0,0,1,5.4,20.227Zm9.065-.262a2.818,2.818,0,0,1-2.83,2.83h-1.31a.806.806,0,0,1-.786-.786V15.825a.806.806,0,0,1,.786-.786h1.31a2.818,2.818,0,0,1,2.83,2.83Zm4.978-3.354H17.554v1.572h1.572a.786.786,0,0,1,0,1.572H17.554v2.306a.786.786,0,0,1-1.572,0V15.825a.806.806,0,0,1,.786-.786h2.672a.786.786,0,1,1,0,1.572Z" transform="translate(0 -5.712)" fill="#3d3f41"/>
    </g>
  </g>
</svg>
