<svg xmlns="http://www.w3.org/2000/svg" width="66.412" height="62.532" viewBox="0 0 66.412 62.532">
  <g id="warning-outline" transform="translate(2.067 2)">
    <path id="Pfad_188" data-name="Pfad 188" d="M58.5,124.282h52.434a4.923,4.923,0,0,0,4.333-7.256L89.049,68.339a4.924,4.924,0,0,0-8.67,0L54.164,117.026a4.923,4.923,0,0,0,4.333,7.256Z" transform="translate(-53.576 -65.75)" fill="none" stroke="#3d3f41" stroke-linecap="round" stroke-linejoin="round" stroke-width="4"/>
    <path id="Pfad_189" data-name="Pfad 189" d="M250.257,190.355l.883,18.767.881-18.76a.883.883,0,0,0-.891-.923h0a.883.883,0,0,0-.874.915Z" transform="translate(-220.001 -170.413)" fill="none" stroke="#3d3f41" stroke-linecap="round" stroke-linejoin="round" stroke-width="4"/>
    <path id="Pfad_190" data-name="Pfad 190" d="M239.077,363.4a3.077,3.077,0,1,1,3.077-3.077A3.077,3.077,0,0,1,239.077,363.4Z" transform="translate(-207.938 -312.409)" fill="#3d3f41"/>
  </g>
</svg>
